<svg width="301" height="150" viewBox="0 0 301 150" fill="none" xmlns="http://www.w3.org/2000/svg">
<path fill-rule="evenodd" clip-rule="evenodd" d="M50.5 149H41.7351C35.0621 113.228 18.9628 83.0885 0 67.0084C11.6036 50.6148 19.2521 26.7943 20.2517 0H50.5H80.7483C81.7479 26.7943 89.3964 50.6148 101 67.0084C82.0372 83.0885 65.9378 113.228 59.2649 149H51.0703C52.7703 149 54.1203 148.5 55.1203 147.5C56.2203 146.4 56.7703 144.95 56.7703 143.15V72.8C56.7703 71 56.2203 69.6 55.1203 68.6C54.1203 67.5 52.7703 66.95 51.0703 66.95C49.2703 66.95 47.8203 67.5 46.7203 68.6C45.7203 69.6 45.2203 71 45.2203 72.8V143.15C45.2203 144.95 45.7203 146.4 46.7203 147.5C47.8203 148.5 49.2703 149 51.0703 149H50.5ZM50.9203 51.35C48.7203 51.35 46.8203 50.55 45.2203 48.95C43.6203 47.35 42.8203 45.4 42.8203 43.1C42.8203 40.6 43.6203 38.65 45.2203 37.25C46.9203 35.75 48.8703 35 51.0703 35C53.1703 35 55.0203 35.75 56.6203 37.25C58.3203 38.65 59.1703 40.6 59.1703 43.1C59.1703 45.4 58.3703 47.35 56.7703 48.95C55.1703 50.55 53.2203 51.35 50.9203 51.35ZM85.2822 91.9727C85.5264 92.6074 85.6484 93.6328 85.6484 95.0488V142.583C85.6484 143.999 85.8682 145.122 86.3076 145.952C86.7959 146.831 87.3818 147.49 88.0654 147.93C88.7979 148.418 89.5791 148.735 90.4092 148.882C91.2881 149.077 92.0938 149.175 92.8262 149.175C93.9004 149.175 94.7061 148.955 95.2432 148.516C95.8291 148.125 96.2441 147.612 96.4883 146.978C96.7812 146.392 96.9277 145.732 96.9277 145C96.9766 144.219 97.001 143.462 97.001 142.729V120.83C97.2939 117.852 98.002 114.897 99.125 111.968C100.297 108.989 101.64 106.328 103.153 103.984C104.667 101.641 106.205 99.7363 107.768 98.2715C109.33 96.8066 110.648 96.0742 111.723 96.0742C112.455 96.0742 113.017 96.3184 113.407 96.8066C113.847 97.2461 114.164 97.8564 114.359 98.6377C114.604 99.4189 114.75 100.322 114.799 101.348C114.848 102.373 114.872 103.472 114.872 104.644V135.112C114.872 137.017 115.141 138.823 115.678 140.532C116.264 142.241 117.094 143.73 118.168 145C119.291 146.27 120.609 147.271 122.123 148.003C123.686 148.784 125.468 149.175 127.47 149.175C130.692 149.175 133.5 148.418 135.893 146.904C137.355 145.979 138.691 144.907 139.898 143.69C139.986 144.597 140.189 145.351 140.507 145.952C140.995 146.831 141.581 147.49 142.265 147.93C142.997 148.418 143.778 148.735 144.608 148.882C145.487 149.077 146.293 149.175 147.025 149.175C148.1 149.175 148.905 148.955 149.442 148.516C150.028 148.125 150.443 147.612 150.688 146.978C150.98 146.392 151.127 145.732 151.127 145C151.176 144.219 151.2 143.462 151.2 142.729V116.948C152.372 112.993 153.642 109.697 155.009 107.061C156.376 104.375 157.743 102.227 159.11 100.615C160.478 99.0039 161.771 97.8809 162.992 97.2461C164.262 96.5625 165.336 96.2207 166.215 96.2207C167.631 96.2207 168.778 96.8066 169.657 97.9785C170.585 99.1504 171.049 100.664 171.049 102.52C171.049 104.814 170.707 106.89 170.023 108.745C169.34 110.552 168.461 112.188 167.387 113.652C166.361 115.117 165.238 116.436 164.018 117.607C162.846 118.779 161.723 119.854 160.648 120.83C159.623 121.758 158.769 122.637 158.085 123.467C157.401 124.248 157.06 125.029 157.06 125.811C157.06 128.301 157.523 130.913 158.451 133.647C159.379 136.382 160.697 138.896 162.406 141.191C164.164 143.486 166.239 145.391 168.632 146.904C171.073 148.418 173.759 149.175 176.688 149.175C180.106 149.175 183.134 148.345 185.771 146.685C188.407 145.024 190.702 142.998 192.655 140.605C193.586 139.466 194.438 138.293 195.214 137.087C196.218 138.674 197.342 140.116 198.588 141.411C201.078 143.901 203.91 145.806 207.084 147.124C210.307 148.491 213.627 149.175 217.045 149.175C220.707 149.175 223.954 148.711 226.786 147.783C229.618 146.855 232.084 145.635 234.184 144.121C235.61 143.092 236.879 141.974 237.991 140.765C238.483 141.599 239.021 142.376 239.604 143.096C241.312 145.098 243.363 146.611 245.756 147.637C248.148 148.662 250.81 149.175 253.739 149.175C256.62 149.175 259.135 148.613 261.283 147.49C263.48 146.416 265.409 145.024 267.069 143.315C268.192 145.073 269.73 146.489 271.684 147.563C273.637 148.638 275.907 149.175 278.495 149.175C281.718 149.175 284.525 148.418 286.918 146.904C289.311 145.391 291.361 143.486 293.07 141.191C294.828 138.896 296.244 136.382 297.318 133.647C298.441 130.913 299.32 128.301 299.955 125.811C300.053 125.518 300.102 125.298 300.102 125.151V124.785C300.102 124.053 299.931 123.32 299.589 122.588C299.296 121.855 298.881 121.196 298.344 120.61C297.855 120.024 297.294 119.561 296.659 119.219C296.024 118.828 295.414 118.633 294.828 118.633C294.096 118.633 293.388 118.999 292.704 119.731C292.021 120.415 291.532 121.538 291.239 123.101C290.897 124.761 290.458 126.543 289.921 128.447C289.433 130.303 288.773 132.036 287.943 133.647C287.162 135.259 286.21 136.602 285.087 137.676C284.013 138.75 282.719 139.287 281.205 139.287C280.326 139.287 279.545 139.092 278.861 138.701C278.227 138.262 277.689 137.725 277.25 137.09C276.859 136.406 276.566 135.674 276.371 134.893C276.176 134.062 276.078 133.232 276.078 132.402V51.8359C276.078 50.0293 275.346 48.4912 273.881 47.2217C272.465 45.9033 270.512 45.2441 268.021 45.2441C267.484 45.2441 266.923 45.293 266.337 45.3906C265.8 45.4395 265.287 45.5371 264.799 45.6836C264.311 45.8301 263.92 46.001 263.627 46.1963C263.334 46.3916 263.188 46.6357 263.188 46.9287C263.188 47.1729 263.261 47.417 263.407 47.6611C263.603 47.8564 263.773 48.1494 263.92 48.54C264.115 48.8818 264.286 49.3701 264.433 50.0049C264.628 50.6396 264.726 51.4941 264.726 52.5684V86.4795C260.624 87.0654 256.742 88.335 253.08 90.2881C249.418 92.1924 246.195 94.7803 243.412 98.0518C240.629 101.274 238.432 105.156 236.82 109.697C235.209 114.189 234.403 119.316 234.403 125.078C234.403 126.203 234.439 127.291 234.51 128.341C233.699 130.138 232.687 131.785 231.474 133.281C230.058 135.088 228.3 136.553 226.2 137.676C224.101 138.75 221.586 139.287 218.656 139.287C216.703 139.287 214.97 139.043 213.456 138.555C211.991 138.066 210.697 137.407 209.574 136.577C208.451 135.747 207.475 134.771 206.645 133.647C205.863 132.476 205.229 131.255 204.74 129.985C208.354 128.911 211.527 127.349 214.262 125.298C217.045 123.198 219.364 120.854 221.22 118.267C223.124 115.63 224.54 112.847 225.468 109.917C226.444 106.987 226.933 104.131 226.933 101.348C226.933 99.1016 226.615 97.0508 225.98 95.1953C225.395 93.3398 224.516 91.7529 223.344 90.4346C222.172 89.0674 220.731 88.0176 219.022 87.2852C217.362 86.5527 215.482 86.1865 213.383 86.1865C210.502 86.1865 207.694 87.041 204.96 88.75C202.226 90.4102 199.784 92.7295 197.636 95.708C195.487 98.6865 193.754 102.227 192.436 106.328C191.117 110.381 190.458 114.775 190.458 119.512C190.458 121.785 190.63 123.944 190.975 125.988C190.705 126.83 190.386 127.698 190.019 128.594C189.237 130.449 188.261 132.183 187.089 133.794C185.966 135.356 184.647 136.675 183.134 137.749C181.669 138.774 180.082 139.287 178.373 139.287C176.908 139.287 175.59 138.945 174.418 138.262C173.295 137.578 172.294 136.65 171.415 135.479C170.536 134.307 169.779 132.988 169.145 131.523C168.559 130.01 168.095 128.447 167.753 126.836C169.267 125.762 170.854 124.419 172.514 122.808C174.223 121.196 175.785 119.365 177.201 117.314C178.617 115.264 179.789 112.993 180.717 110.503C181.645 107.964 182.108 105.254 182.108 102.373C182.108 100.273 181.84 98.2715 181.303 96.3672C180.814 94.4141 180.009 92.6807 178.886 91.167C177.812 89.6533 176.444 88.457 174.784 87.5781C173.124 86.6504 171.122 86.1865 168.778 86.1865C167.069 86.1865 165.409 86.5283 163.798 87.2119C162.235 87.8955 160.722 88.8232 159.257 89.9951C157.792 91.1182 156.376 92.4365 155.009 93.9502C153.69 95.415 152.421 96.9775 151.2 98.6377V51.8359C151.2 50.0293 150.468 48.4912 149.003 47.2217C147.587 45.9033 145.634 45.2441 143.144 45.2441C142.606 45.2441 142.045 45.293 141.459 45.3906C140.922 45.4395 140.409 45.5371 139.921 45.6836C139.433 45.8301 139.042 46.001 138.749 46.1963C138.456 46.3916 138.31 46.6357 138.31 46.9287C138.31 47.1729 138.383 47.417 138.529 47.6611C138.725 47.8564 138.896 48.1494 139.042 48.54C139.237 48.8818 139.408 49.3701 139.555 50.0049C139.75 50.6396 139.848 51.4941 139.848 52.5684V124.767C139.575 125.938 139.257 127.165 138.896 128.447C138.407 130.303 137.748 132.036 136.918 133.647C136.137 135.259 135.185 136.602 134.062 137.676C132.987 138.75 131.693 139.287 130.18 139.287C129.203 139.287 128.446 138.994 127.909 138.408C127.421 137.822 127.055 137.139 126.811 136.357C126.566 135.576 126.42 134.819 126.371 134.087C126.322 133.306 126.298 132.744 126.298 132.402V101.348C126.298 99.6387 126.103 97.8809 125.712 96.0742C125.37 94.2676 124.735 92.6318 123.808 91.167C122.88 89.7021 121.61 88.5059 119.999 87.5781C118.388 86.6504 116.337 86.1865 113.847 86.1865C111.991 86.1865 110.258 86.5771 108.646 87.3584C107.084 88.0908 105.595 89.1406 104.179 90.5078C102.812 91.8262 101.518 93.3887 100.297 95.1953C99.125 97.002 98.0264 98.9551 97.001 101.055V94.3164C97.001 92.5098 96.2686 90.9717 94.8037 89.7021C93.3877 88.3838 91.4346 87.7246 88.9443 87.7246C87.8701 87.7246 86.9424 87.9688 86.1611 88.457C85.3799 88.8965 84.9893 89.4824 84.9893 90.2148C84.9893 90.752 85.0869 91.3379 85.2822 91.9727ZM245.985 122.876C246.037 122.551 246.082 122.235 246.122 121.929C246.178 121.427 246.163 120.953 246.077 120.508C246.273 117.295 246.752 114.472 247.514 112.041C248.539 108.721 249.906 105.986 251.615 103.838C253.373 101.689 255.375 100.029 257.621 98.8574C259.916 97.6367 262.284 96.8066 264.726 96.3672V133.428C263.749 135.088 262.528 136.479 261.063 137.603C259.647 138.726 257.963 139.287 256.01 139.287C254.691 139.287 253.422 138.994 252.201 138.408C250.98 137.822 249.906 136.919 248.979 135.698C248.1 134.478 247.367 132.915 246.781 131.011C246.244 129.058 245.976 126.714 245.976 123.979C245.976 123.607 245.979 123.239 245.985 122.876ZM202.909 121.782C202.909 121.294 202.885 120.83 202.836 120.391C202.787 119.951 202.763 119.512 202.763 119.072C202.714 118.047 202.738 116.777 202.836 115.264C202.934 113.701 203.129 112.065 203.422 110.356C203.715 108.647 204.081 106.963 204.521 105.303C205.009 103.594 205.595 102.08 206.278 100.762C207.011 99.3945 207.841 98.2959 208.769 97.4658C209.745 96.6357 210.844 96.2207 212.064 96.2207C213.041 96.2207 213.798 96.6846 214.335 97.6123C214.921 98.54 215.214 99.834 215.214 101.494C215.214 103.74 214.921 105.913 214.335 108.013C213.749 110.063 212.919 111.968 211.845 113.726C210.771 115.483 209.477 117.046 207.963 118.413C206.449 119.78 204.765 120.903 202.909 121.782Z" fill="#FFA079"/>
</svg>
