<svg width="637" height="417" viewBox="0 0 637 417" fill="none" xmlns="http://www.w3.org/2000/svg">
<path d="M332.537 162.634C331.425 161.626 330.114 161.191 328.637 161.339C318.813 162.286 308.971 161.634 299.138 161.8C292.198 161.921 285.258 162.39 278.317 162.59C277.179 162.625 276.832 163.433 276.146 163.937" stroke="black" stroke-width="3" stroke-linecap="round" stroke-linejoin="round"/>
<path d="M185.495 175.217C185.295 185.455 193.599 195.649 201.547 197.769" stroke="black" stroke-width="3" stroke-linecap="round" stroke-linejoin="round"/>
<path d="M213.256 119.26C217.148 117.218 219.598 113.185 224.01 111.63C224.844 111.334 225.643 108.067 223.802 105.703C221.717 103.018 219.632 103.409 217.157 104.087C212.318 105.416 211.293 109.901 209.348 113.62" stroke="black" stroke-width="3" stroke-linecap="round" stroke-linejoin="round"/>
<path d="M82.2663 122.728C80.9286 123.536 79.4519 123.823 77.9318 123.579C69.9751 122.31 62.0184 121.033 54.0791 119.677C48.711 118.765 43.3341 117.957 37.992 116.818C34.5262 116.079 32.1287 113.637 28.9148 112.751" stroke="black" stroke-width="3" stroke-linecap="round" stroke-linejoin="round"/>
<path d="M355.53 331.81C341.971 332.687 328.724 328.472 315.191 329.246C305.792 329.785 296.393 329.759 286.995 329.594C275.138 329.376 263.281 328.768 251.424 328.351C249.852 328.299 248.193 328.073 247.09 329.646" stroke="black" stroke-width="3" stroke-linecap="round" stroke-linejoin="round"/>
<path d="M497.804 118.826C492.887 124.188 487.51 128.889 480.014 130.062C476.062 130.679 471.901 130.001 468.374 128.628C461.2 125.839 453.295 125.204 446.563 121.094C445.234 120.286 443.149 120.711 441.421 120.564" stroke="black" stroke-width="3" stroke-linecap="round" stroke-linejoin="round"/>
<path d="M184.635 174.783C185.373 174.54 186.111 174.288 187.423 173.853C192.279 181.223 198.933 187.723 201.634 196.883C202.45 199.664 205.291 201.263 207.176 203.426C211.684 208.623 218.59 210.796 222.907 216.349C225.495 219.686 229.43 222.737 230.342 226.473C232.748 236.363 240.731 241.134 247.785 245.992C252.588 249.294 257.869 251.936 261.804 256.368C264.627 259.54 267.711 262.599 269.214 266.745" stroke="black" stroke-width="3" stroke-linecap="round" stroke-linejoin="round"/>
<path d="M260.97 238.544C259.442 233.547 256.462 229.428 252.649 226.056C250.903 224.509 248.514 223.188 245.761 225.048C242.964 226.934 241.722 229.098 242.738 232.478C244.414 238.084 247.142 242.533 253.604 243.341C254.351 243.437 255.055 243.898 255.776 244.184" stroke="black" stroke-width="3" stroke-linecap="round" stroke-linejoin="round"/>
<path d="M212.822 209.484C211.293 211.517 213.508 212.803 214.247 213.725C218.329 218.843 222.794 223.658 227.137 228.568C228.058 229.602 229.048 230.523 230.603 230.306" stroke="black" stroke-width="3" stroke-linecap="round" stroke-linejoin="round"/>
<path d="M302.178 226.838C305.514 232.496 306.461 239.014 308.771 245.027C312.741 255.36 316.902 265.615 322.956 275.018C330.505 286.741 336.368 299.377 342.613 311.813C345.958 318.461 350.318 324.588 354.227 330.949" stroke="black" stroke-width="3" stroke-linecap="round" stroke-linejoin="round"/>
<path d="M422.762 129.237C428.487 132.817 434.984 133.452 441.412 133.46C448.118 133.478 454.667 134.851 461.365 135.016C465.76 135.129 469.278 138.283 472.613 140.977C479.172 146.261 485.104 152.31 492.149 157.011C495.25 159.079 498.229 161.33 501.27 163.503" stroke="black" stroke-width="3" stroke-linecap="round" stroke-linejoin="round"/>
<path d="M269.648 223.362C270.803 230.419 272.48 237.206 275.494 243.854C277.883 249.121 279.125 254.961 281.713 260.27C282.808 262.521 280.966 264.728 278.317 264.52C275.251 264.285 272.81 265.406 270.508 267.171" stroke="black" stroke-width="3" stroke-linecap="round" stroke-linejoin="round"/>
<path d="M286.995 242.021C286.43 238.623 288.159 235.424 287.872 232.044C287.803 231.184 288.063 230.245 287.82 229.454C287.247 227.603 286.908 225.222 284.389 225.17C281.653 225.118 281.436 227.734 281.462 229.437C281.514 234.269 281.305 239.205 283.529 243.75" stroke="black" stroke-width="3" stroke-linecap="round" stroke-linejoin="round"/>
<path d="M343.821 199.507C337.949 195.909 331.278 193.98 324.798 195.457C319.265 196.718 314.044 195.24 308.658 195.788C304.046 196.257 299.243 194.493 295.664 190.843C294.969 190.139 294.074 189.835 293.066 189.965" stroke="black" stroke-width="3" stroke-linecap="round" stroke-linejoin="round"/>
<path d="M322.131 196.474C323.521 199.403 326.691 199.759 329.08 201.237C333.545 204.009 338.036 206.738 342.518 209.484" stroke="black" stroke-width="3" stroke-linecap="round" stroke-linejoin="round"/>
<path d="M629.663 97.1431C627.439 97.0127 625.441 97.4472 623.565 98.8464C619.23 102.097 613.827 102.305 608.833 103.617C598.166 106.407 587.204 107.415 576.311 108.884C573.392 109.275 570.456 109.796 567.642 110.639C562.395 112.212 559.416 116.696 559.399 122.736C559.381 130.714 558 138.727 558.391 146.583C558.808 155.047 554.5 162.069 553.544 169.995C553.37 171.428 553.501 173.366 552.45 174.792" stroke="black" stroke-width="3" stroke-linecap="round" stroke-linejoin="round"/>
<path d="M330.809 170.881C332.103 170.646 333.406 170.751 334.726 170.559C341.71 169.534 342.483 173.514 341.232 178.694C340.763 180.614 339.078 182.144 339.486 184.334" stroke="black" stroke-width="3" stroke-linecap="round" stroke-linejoin="round"/>
<path d="M563.733 189.531C565.418 189.279 566.157 189.939 566.374 191.694C566.869 195.779 569.006 199.516 568.615 203.852C568.45 205.712 569.996 207.363 571.542 208.615" stroke="black" stroke-width="3" stroke-linecap="round" stroke-linejoin="round"/>
<path d="M477.417 296.24C475.289 309.319 474.316 322.667 469.955 335.251C464.717 350.346 462.025 365.806 461.347 381.692C461.243 384.16 461.182 386.733 460.435 389.044C457.933 396.84 453.842 399.308 442.732 398.491C423.614 397.083 404.564 396.961 385.463 398.56C376.36 399.317 367.517 401.333 358.562 402.854C352.142 403.949 345.558 404.009 339.061 404.713C330.392 405.643 321.645 405.6 313.01 407.155C309.927 407.711 306.669 407.833 303.49 408.111C295.264 408.841 286.977 409.006 278.786 409.997C271.933 410.823 265.149 412.352 258.408 413.882C256.089 414.412 253.735 414.438 251.407 414.898C246.395 415.889 242.946 410.266 244.519 404.261C245.891 399.038 247.402 393.85 248.836 388.645C251.12 380.363 250.642 372.168 248.445 363.912C245.926 354.431 245.874 344.976 249.67 335.712C250.043 334.799 251.129 334.269 250.46 332.618C249.756 332.175 248.427 331.349 247.098 330.515" stroke="black" stroke-width="3" stroke-linecap="round" stroke-linejoin="round"/>
<path d="M168.148 206.016C170.042 210.648 171.406 215.628 176.392 218.165" stroke="black" stroke-width="3" stroke-linecap="round" stroke-linejoin="round"/>
<path d="M250.564 167.414C253.648 163.79 257.131 163.025 262.274 164.806C267.173 166.501 271.229 169.89 275.816 171.976C283.26 175.357 288.063 181.379 290.999 187.949C294.413 195.588 300.554 201.688 302.613 209.918C304.185 216.193 303.586 222.033 300.12 227.768C297.835 231.54 295.568 235.338 292.563 238.475C288.437 242.794 283.486 245.827 277.023 244.619" stroke="black" stroke-width="3" stroke-linecap="round" stroke-linejoin="round"/>
<path d="M23.2773 19.0599C27.5944 22.0668 30.3827 26.7944 34.9865 29.471" stroke="black" stroke-width="3" stroke-linecap="round" stroke-linejoin="round"/>
<path d="M274.851 163.503C276.728 166.536 279.455 169.152 279.62 173.045" stroke="black" stroke-width="3" stroke-linecap="round" stroke-linejoin="round"/>
<path d="M221.934 272.385C218.468 274.131 219.18 276.434 221.065 278.894" stroke="black" stroke-width="3" stroke-linecap="round" stroke-linejoin="round"/>
<path d="M344.69 201.68C342.805 203.626 343.578 206.416 342.518 208.623" stroke="black" stroke-width="3" stroke-linecap="round" stroke-linejoin="round"/>
<path d="M429.703 150.493C429.269 150.928 428.912 151.528 428.391 151.771C423.614 154.004 421.711 158.697 418.793 162.59C412.799 170.586 405.173 177.008 397.598 183.447C395.887 184.899 393.655 185.915 393.698 188.662" stroke="black" stroke-width="3" stroke-linecap="round" stroke-linejoin="round"/>
<path d="M237.118 265.007C233.018 268.5 233.009 268.648 235.798 272.828C236.223 273.462 236.397 274.262 236.684 274.983" stroke="black" stroke-width="3" stroke-linecap="round" stroke-linejoin="round"/>
<path d="M282.226 266.31C287.542 275.313 289.67 284.951 288.402 295.388C288.228 296.822 287.386 297.674 287.004 298.847" stroke="black" stroke-width="3" stroke-linecap="round" stroke-linejoin="round"/>
<path d="M257.505 190.4C256.74 194.023 259.112 196.822 260.18 199.916C262.708 207.224 265.6 214.402 268.354 221.624" stroke="black" stroke-width="3" stroke-linecap="round" stroke-linejoin="round"/>
<path d="M22.4087 16.027C22.0699 21.7887 20.4369 27.3158 19.3598 32.9385C16.667 46.9213 9.80483 59.3486 4.66251 72.4276C3.42036 75.5996 2.21296 78.789 2.39537 82.3955C2.63859 87.2447 3.66358 88.4614 8.51056 89.8258C12.6626 90.9903 16.9711 90.9207 21.1579 92.2069C26.7171 93.9189 31.816 96.2566 36.7499 99.2722C45.3059 104.513 55.0259 107.241 64.0163 111.534C70.5571 114.663 77.2456 117.644 82.7788 122.658C84.9157 124.596 87.9646 125.1 90.9527 124.9" stroke="black" stroke-width="3" stroke-linecap="round" stroke-linejoin="round"/>
<path d="M393.698 201.245C401.611 201.245 403.513 199.681 405.477 192.59C406.354 189.418 405.086 187.706 402.367 187.471C398.892 187.184 395.357 188.401 392.482 190.113C388.894 192.251 388.807 196.24 391.544 199.498C392.708 200.889 394.349 201.914 394.784 203.852" stroke="black" stroke-width="3" stroke-linecap="round" stroke-linejoin="round"/>
<path d="M270.951 275.852C270.804 276 270.647 276.13 270.517 276.287C268.858 278.407 266.903 280.571 264.037 279.659C260.727 278.598 257.896 273.315 258.365 270.212C258.782 267.449 261.613 264.963 263.941 266.015C266.017 266.953 268.18 266.154 270.387 267.344C272.15 278.19 277.674 287.489 284.337 296.283C285.874 298.308 288.515 299.968 287.864 303.183" stroke="black" stroke-width="3" stroke-linecap="round" stroke-linejoin="round"/>
<path d="M243.19 331.375C234.104 336.676 230.334 344.593 231.984 355.656C232.384 358.333 232.106 360.87 232.462 363.877C228.171 364.068 224.627 362.548 221.118 361.896C217.339 361.192 213.395 360.862 209.782 360.723C200.105 360.358 190.455 359.332 180.726 359.488C159.905 359.819 139.092 358.767 118.271 358.48C102.254 358.263 86.2708 355.969 70.9829 350.468C66.7873 348.956 62.2878 349.46 57.9707 348.721" stroke="black" stroke-width="3" stroke-linecap="round" stroke-linejoin="round"/>
<path d="M355.096 188.662C357.328 189.244 358.987 190.73 360.777 192.077C362.071 193.041 363.435 192.572 364.668 191.303C367.083 188.818 368.247 185.646 369.298 182.561C370.366 179.415 367.3 176.226 363.374 177.52C359.621 178.754 356.251 181.057 354.227 184.768" stroke="black" stroke-width="3" stroke-linecap="round" stroke-linejoin="round"/>
<path d="M450.09 204.278C449.812 202.14 451.436 201.089 452.713 199.968C458.012 195.284 463.345 190.634 468.757 186.089C471.727 183.595 474.542 181.101 476.149 177.407C478.233 172.619 476.618 169.595 471.336 169.16C462.928 168.465 455.684 171.481 449.238 176.547C441.638 182.517 434.142 188.618 426.68 194.762C421.329 199.168 415.561 202.896 408.856 204.617C404.46 205.738 399.761 206.616 395.435 203.852" stroke="black" stroke-width="3" stroke-linecap="round" stroke-linejoin="round"/>
<path d="M349.893 179.989C345.376 181.779 341.554 184.907 336.49 185.846C333.258 186.445 331.078 186.011 329.106 183.856C327.291 181.866 326.943 179.702 328.038 176.886C328.811 174.905 330.748 173.297 330.34 170.785C328.359 168.839 326.631 170.481 325.675 171.793C320.698 178.615 316.537 185.968 312.62 193.45C312.35 193.963 312.585 194.736 312.585 195.388" stroke="black" stroke-width="3" stroke-linecap="round" stroke-linejoin="round"/>
<path d="M246.221 330.072C232.097 328.047 217.921 328.055 203.71 328.768C203.276 328.785 202.841 328.768 202.407 328.768C184.913 328.916 167.419 329.081 149.924 329.194C140.526 329.255 131.127 329.255 121.728 329.176C119.079 329.15 116.621 329.567 114.354 330.941" stroke="black" stroke-width="3" stroke-linecap="round" stroke-linejoin="round"/>
<path d="M632.26 123.597C629.94 123.006 629.489 125.482 627.96 126.273C623.964 128.324 619.829 129.324 615.356 129.749C603.638 130.853 591.747 130.488 580.237 133.226C572.168 135.146 566.322 140.517 562.083 147.504C561.318 148.764 560.762 149.902 559.39 150.485" stroke="black" stroke-width="3" stroke-linecap="round" stroke-linejoin="round"/>
<path d="M220.197 146.591C217.322 147.791 215.124 146.218 212.813 144.871C205.491 140.595 198.715 135.659 190.351 132.895C176.548 128.342 164.761 131.122 153.868 139.691C145.008 146.661 136.843 154.421 129.06 162.59C127.652 164.059 125.637 164.945 123.9 166.101" stroke="black" stroke-width="3" stroke-linecap="round" stroke-linejoin="round"/>
<path d="M153.399 195.605C151.14 194.415 148.969 195.675 146.91 196.127C140.239 197.587 133.576 196.639 126.94 196.335C124.734 196.24 122.597 196.474 120.425 196.492C111.548 196.552 106.631 199.698 104.026 208.206C99.3697 223.423 93.0113 238.11 89.6323 253.726C87.5736 263.26 85.7147 272.845 83.5171 282.344C80.9894 293.25 76.5419 303.531 72.8676 314.073C68.759 325.848 63.608 337.024 57.5883 347.878C56.7979 349.295 55.2604 349.625 54.496 350.885" stroke="black" stroke-width="3" stroke-linecap="round" stroke-linejoin="round"/>
<path d="M421.459 156.568C418.767 155.169 417.073 157.559 414.962 158.315C403.401 162.469 394.28 169.986 386.323 179.119C381.207 184.985 376.655 191.486 369.819 195.553C365.954 197.856 361.741 198.412 357.71 195.596C355.626 194.136 354.262 192.485 354.54 189.522C354.722 187.558 354.323 185.081 351.639 184.325" stroke="black" stroke-width="3" stroke-linecap="round" stroke-linejoin="round"/>
<path d="M135.618 198.638C131.17 201.289 126.211 201.132 120.773 201.862C119.34 203.887 120.782 206.816 120.999 209.466C121.85 220.034 120.868 230.358 118.827 240.734C117.576 247.104 117.646 253.735 116.942 260.227C116.195 267.179 114.962 274.088 114.441 281.058C113.937 287.828 113.659 294.667 114.05 301.428C114.432 308.094 114.189 314.742 114.345 321.39C114.414 324.205 114.171 327.047 115.665 329.628" stroke="black" stroke-width="3" stroke-linecap="round" stroke-linejoin="round"/>
<path d="M204.587 140.517C201.026 142.029 197.43 140.204 193.721 140.804C183.523 142.472 176.504 147.53 174.871 157.463C173.603 165.197 169.99 168.978 162.519 170.09C159.21 170.577 155.779 171.09 154.163 175.174C152.409 179.615 152.799 183.882 153.885 188.21C154.267 189.739 155.275 191.112 155.996 192.563" stroke="black" stroke-width="3" stroke-linecap="round" stroke-linejoin="round"/>
<path d="M244.927 272.811C244.284 276.582 241.313 275.609 238.855 275.87C230.586 276.747 223.854 272.741 217.695 268.344C208.8 261.982 198.681 257.993 189.291 252.631C181.369 248.104 174.237 243.081 168.565 235.963C167.61 234.764 166.533 233.513 164.683 233.773" stroke="black" stroke-width="3" stroke-linecap="round" stroke-linejoin="round"/>
<path d="M450.524 215.124C453.616 213.586 456.657 212.239 457.577 208.206C458.142 205.721 457.482 204.504 455.293 204.348C452.305 204.13 449.456 204.07 446.989 206.824C436.687 218.322 435.931 232.478 447.414 244.263C454.268 251.302 462.572 256.047 470.989 260.531C478.859 264.72 481.421 271.012 480.144 280.206C479.51 284.786 477.756 289.314 478.72 294.067" stroke="black" stroke-width="3" stroke-linecap="round" stroke-linejoin="round"/>
<path d="M624.459 98.0034C620.707 95.6831 616.676 96.5608 612.768 97.2473C611.899 97.4038 611.004 97.5341 610.144 97.5428C593.336 97.7166 576.589 99.1158 559.833 100.211C543.572 101.271 527.754 104.617 512.562 110.613C508.349 112.282 504.206 114.237 501.27 117.948" stroke="black" stroke-width="3" stroke-linecap="round" stroke-linejoin="round"/>
<path d="M460.93 134.442C460.261 131.036 457.152 131.244 454.841 130.592C445.503 127.95 435.748 127.281 426.237 127.42C419.939 127.516 413.867 124.648 407.579 126.621C400.751 128.759 393.932 127.021 387.218 126.082C382.119 125.369 377.871 126.786 373.771 129.263C367.3 133.182 362.149 138.735 356.425 143.576C348.972 149.876 341.892 156.594 333.927 162.321C331.643 163.963 330.314 166.953 329.94 170.012" stroke="black" stroke-width="3" stroke-linecap="round" stroke-linejoin="round"/>
<path d="M633.997 107.98C634.023 112.768 633.832 117.548 633.146 122.293C632.998 123.31 633.189 124.301 633.519 125.343C636.525 134.764 634.839 144.245 632.963 153.492C631.608 160.174 631.348 166.779 631.434 173.479C631.469 176.069 630.87 178.502 630.036 180.831C628.073 186.333 622.922 186.28 618.37 186.854C615.521 187.219 612.585 187.063 609.701 186.897C601.519 186.411 593.458 187.793 585.432 188.818C579.073 189.626 572.654 189.809 566.33 190.834" stroke="black" stroke-width="3" stroke-linecap="round" stroke-linejoin="round"/>
<path d="M169.451 206.885C175.036 206.442 177.33 208.58 177.06 215.55C176.965 218.165 177.773 219.834 179.015 221.615C184.557 229.567 191.237 235.981 200.166 240.439C211.641 246.174 223.228 251.954 233.174 260.279C237.161 263.616 240.94 267.231 244.666 270.899C249.617 275.783 255.177 280.71 263.142 280.215C264.15 280.154 263.281 281.101 263.576 281.492" stroke="black" stroke-width="3" stroke-linecap="round" stroke-linejoin="round"/>
<path d="M223.237 150.928C220.987 154.552 217.209 153.474 214.134 153.396C208.644 153.257 203.172 152.136 197.647 153.1C192.513 153.996 188.77 156.889 185.425 160.844C181.543 165.441 179.05 171.055 174.637 175.2C169.79 179.763 165.386 184.82 160.556 189.296C156.561 193.007 153.72 197.491 149.942 201.254C145.355 205.808 147.023 211.509 148.421 216.358C149.924 221.572 150.411 226.274 148.178 231.166C146.815 234.164 147.301 236.928 148.578 239.865C151.366 246.253 155.761 251.615 161.312 255.291C170.572 261.409 179.388 268.309 189.412 273.193C197.855 277.312 206.559 280.797 216.279 280.189C218.876 280.024 221.5 280.015 224.08 279.719C226.477 279.441 228.553 278.485 229.291 275.852" stroke="black" stroke-width="3" stroke-linecap="round" stroke-linejoin="round"/>
<path d="M628.359 265.224C625.102 261.304 620.742 258.628 616.572 256.021C603.734 247.982 592.963 237.806 583.712 225.943C577.657 218.174 569.866 215.558 560.25 216.358C543.676 217.731 527.276 220.399 510.79 222.354C498.924 223.762 487.05 225.161 475.263 226.969C454.58 230.141 433.768 232.522 413.563 238.718C405.268 241.264 396.304 243.385 387.14 239.987C379.2 237.041 374.258 230.949 369.003 225.074C361.558 216.758 354.462 208.093 345.497 201.315C344.264 200.385 344.411 199.351 344.75 198.673C347.026 194.05 347.486 188.705 350.422 184.395C350.718 183.96 351.326 183.621 351.169 183.03C349.667 177.381 353.749 174.453 356.79 170.846C369.341 155.925 384.881 144.254 399.318 131.383C400.23 130.566 401.481 129.88 401.507 128.368" stroke="black" stroke-width="3" stroke-linecap="round" stroke-linejoin="round"/>
<path d="M224.54 112.325C226.807 113.377 227.815 115.236 229.013 117.461C235.111 128.785 237.431 141.525 242.755 153.1C246.499 161.226 250.669 169.178 253.144 177.833C253.709 179.806 253.353 183.239 253.813 183.656C255.976 185.594 255.02 190.565 259.668 189.974C264.037 194.675 269.309 198.595 271.438 205.138C273.418 211.213 270.96 216.758 270.039 222.502C269.952 223.067 269.283 223.084 268.771 222.728" stroke="black" stroke-width="3" stroke-linecap="round" stroke-linejoin="round"/>
<path d="M194.607 102.349C194.954 100.367 193.582 99.307 192.461 97.9947C171.188 73.0185 145.512 53.2305 118.749 34.6157C102.54 23.3443 86.2012 12.4813 67.5516 5.52899C64.1031 4.24281 60.6286 2.96532 57.0846 2.25271C52.0117 1.23594 47.7033 3.35639 44.5588 7.37135C39.5816 13.724 37.9225 21.4845 35.8638 29.0452C35.36 30.8962 36.6543 31.6957 38.0093 32.53C47.7033 38.4569 58.014 43.1323 68.3768 47.7034C79.0958 52.431 89.5628 57.6887 100.395 62.2077C110.827 66.5529 121.668 68.1172 132.578 69.7944C140.578 71.0197 148.647 71.9583 156.404 74.2613C161.164 75.6691 165.421 78.311 169.043 81.9436C175.401 88.3223 181.195 95.431 189.021 100.106C194.52 103.391 200.218 106.172 205.109 110.5C208.218 113.246 211.78 116.149 212.518 119.782C213.474 124.518 214.637 129.132 216.349 133.573C219.007 140.456 221.222 147.426 225.6 153.709C228.953 158.523 229.969 164.911 232.375 170.446C239.159 186.054 248.036 200.454 257.904 214.289C260.441 217.844 262.621 221.485 263.715 225.952C265.322 232.557 264.827 237.919 258.842 242.099C256.784 243.541 254.873 245.375 253.596 247.678" stroke="black" stroke-width="3" stroke-linecap="round" stroke-linejoin="round"/>
<path d="M632.694 127.507C630.21 131.957 630.201 137.075 628.863 141.846C627.109 148.121 626.014 154.578 624.416 160.904C622.774 167.405 619.812 169.673 613.176 169.569C598.748 169.343 585.075 172.941 571.533 177.381C565.931 179.224 560.241 180.797 554.63 182.63C551.789 183.56 548.202 184.568 547.889 187.827C547.594 190.869 550.912 192.407 553.336 193.85C557.722 196.457 561.996 199.151 565.505 202.949C566.217 203.722 567.251 204.4 568.502 204.287" stroke="black" stroke-width="3" stroke-linecap="round" stroke-linejoin="round"/>
<path d="M36.2894 32.0781C34.6911 36.658 35.4642 41.3073 35.829 45.9567C36.3415 52.4919 37.853 58.8793 38.1049 65.4753C38.4697 75.1216 36.0462 84.0553 32.4153 92.8152C31.2948 95.518 30.2003 98.2294 29.2361 101.002C25.9874 110.344 27.7421 118.521 34.1439 125.743C44.8368 137.797 58.7784 142.768 74.4485 144.523C88.7376 146.113 103.035 147.321 117.403 147.938C122.093 148.138 125.359 152.179 125.698 156.994C125.872 159.453 124.725 161.982 126.08 164.372" stroke="black" stroke-width="3" stroke-linecap="round" stroke-linejoin="round"/>
<path d="M627.057 265.441C619.656 267.362 612.003 267.37 604.507 268.526C596.281 269.786 587.994 270.638 579.751 271.785C568.363 273.367 557.079 275.287 545.961 278.094C536.336 280.519 526.929 283.804 517.296 286.202C505.083 289.244 492.774 291.956 480.431 294.467C466.594 297.283 452.722 299.985 438.789 302.236C428.739 303.853 418.584 305.087 408.43 305.686C393.707 306.555 381.867 300.055 372.955 288.81C360.742 273.393 347.209 259.393 332.181 246.705C325.145 240.76 318.344 234.512 311.238 228.637C308.858 226.673 306.47 224.396 303.039 224.249" stroke="black" stroke-width="3" stroke-linecap="round" stroke-linejoin="round"/>
<path d="M447.049 120.998C449.803 118.113 453.677 118.687 457.047 118.069C465.907 116.453 474.741 114.976 483.932 115.654C496.562 116.583 507.863 120.79 518.634 127.055C527.303 132.096 534.399 138.787 538.464 147.938C542.912 157.932 543.051 168.543 538.881 178.633C535.207 187.532 527.242 191.303 518.191 192.998C514.429 193.702 510.642 194.319 506.916 195.188C500.053 196.804 494.286 200.454 489.595 205.599C480.031 216.08 467.454 217.74 454.433 217.557C450.593 217.505 447.996 213.89 445.321 211.204" stroke="black" stroke-width="3" stroke-linecap="round" stroke-linejoin="round"/>
</svg>
