<svg width="806" height="757" viewBox="0 0 806 757" fill="none" xmlns="http://www.w3.org/2000/svg">
<g filter="url(#filter0_f_4_122)">
<path fill-rule="evenodd" clip-rule="evenodd" d="M481.827 18.8517C514.352 31.1945 543.249 48.1325 567.475 68.0456C602.238 88.6108 633.784 117.492 658.873 153.891C685.703 192.816 701.871 235.584 707.874 278.143C721.714 337.228 716.43 404.616 688.907 468.872C686.605 477.433 683.913 486.01 680.82 494.571C671.341 520.811 658.87 544.763 644.233 565.88C620.004 605.23 585.037 636.056 541.258 652.797C533.712 655.683 526.082 658.082 518.393 660.009C518.052 660.095 517.711 660.18 517.37 660.263C486.146 667.916 453.988 667.809 422.657 660.919C338.476 652.892 246.107 605.126 173.168 523.764C136.376 482.723 108.619 437.697 90.2965 392.297C75.3363 368.39 64.725 341.768 59.4908 313.401C51.3857 290.193 47 265.387 47 239.615C47 128.18 128.991 34.831 239.106 10.4431C270.84 0.097507 306.339 -5.10082 343.642 -3.80461C353.825 -3.4508 363.839 -2.62359 373.648 -1.35309C408.379 -1.49373 445.313 4.99522 481.827 18.8517Z" fill="#F5B094"/>
</g>
<defs>
<filter id="filter0_f_4_122" x="-43" y="-94" width="848.245" height="850.047" filterUnits="userSpaceOnUse" color-interpolation-filters="sRGB">
<feFlood flood-opacity="0" result="BackgroundImageFix"/>
<feBlend mode="normal" in="SourceGraphic" in2="BackgroundImageFix" result="shape"/>
<feGaussianBlur stdDeviation="45" result="effect1_foregroundBlur_4_122"/>
</filter>
</defs>
</svg>
